# xmcd
#
# Track frame offsets: 
#        180
#        20961
#        41898
#        61746
#        90392
#        108356
#        128202
#        146202
#        165184
#        185629
#        207635
#        240321
#
# Disc length: 3450 seconds
#
# Revision: 7
# Processed by: cddbd v1.5.2PL0 Copyright (c) Steve Scherf et al.
# Submitted via: ExactAudioCopy v1.3
#
DISCID=a80d780c
DTITLE=齊豫 (Chyi) - 駱駝．飛鳥．魚 (Camel Birds Fish)
DYEAR=1997
DGENRE=Pop
TTITLE0=飛鳥與魚 (中視劇場《女人花》片頭曲) (Fish and Birds)
TTITLE1=覺 (遙寄林覺民) (To Jueh Eith Love)
TTITLE2=有．沒有 (To Have and Have Not)
TTITLE3=既然你問起 (Since You Ask)
TTITLE4=女人與小孩 I (Woman and The Child I)
TTITLE5=話題 (Lovers' Silence)
TTITLE6=哭泣的駱駝 (中視《火燒阿房宮》片尾曲)(Tearful Weeping)
TTITLE7=幸福 (Blissfulness)
TTITLE8=懶洋洋 (Lazy Love)
TTITLE9=四十個無親無故的年頭 (Forty Lone Years)
TTITLE10=嘆息瓶 (Bottle Of Sighs)
TTITLE11=女人與小孩 II (Woman and The Child II)
EXTD=YEAR: 1997
EXTT0=
EXTT1=
EXTT2=
EXTT3=
EXTT4=
EXTT5=
EXTT6=
EXTT7=
EXTT8=
EXTT9=
EXTT10=
EXTT11=
PLAYORDER=
